<mxfile host="Electron" modified="2023-10-02T15:48:31.161Z" agent="Mozilla/5.0 (X11; Linux x86_64) AppleWebKit/537.36 (KHTML, like Gecko) draw.io/22.0.0 Chrome/114.0.5735.289 Electron/25.8.3 Safari/537.36" etag="AiFTl4xnF2v-xIPj_guJ" version="22.0.0" type="device">
  <diagram id="mxLrTcScmsC2k8IR_olh" name="Page-1">
    <mxGraphModel dx="880" dy="551" grid="1" gridSize="10" guides="1" tooltips="1" connect="1" arrows="1" fold="1" page="1" pageScale="1" pageWidth="850" pageHeight="1100" math="0" shadow="0">
      <root>
        <mxCell id="0" />
        <mxCell id="1" parent="0" />
        <mxCell id="GyRCs6rigEPBIebJZ3dG-1" value="&lt;font style=&quot;font-size: 42px;&quot;&gt;&lt;b&gt;This will be read first&lt;/b&gt;&lt;/font&gt;" style="text;html=1;strokeColor=none;fillColor=none;align=left;verticalAlign=middle;whiteSpace=wrap;rounded=0;" parent="1" vertex="1">
          <mxGeometry x="120" y="160" width="430" height="40" as="geometry" />
        </mxCell>
        <mxCell id="GyRCs6rigEPBIebJZ3dG-2" value="&lt;font style=&quot;font-size: 10px;&quot;&gt;And lastly, this&lt;/font&gt;" style="text;html=1;strokeColor=none;fillColor=none;align=left;verticalAlign=middle;whiteSpace=wrap;rounded=0;" parent="1" vertex="1">
          <mxGeometry x="120" y="130" width="80" height="30" as="geometry" />
        </mxCell>
        <mxCell id="GyRCs6rigEPBIebJZ3dG-3" value="&lt;font style=&quot;font-size: 22px;&quot;&gt;This will be read second&lt;/font&gt;" style="text;html=1;strokeColor=none;fillColor=none;align=left;verticalAlign=middle;whiteSpace=wrap;rounded=0;" parent="1" vertex="1">
          <mxGeometry x="120" y="200" width="260" height="30" as="geometry" />
        </mxCell>
      </root>
    </mxGraphModel>
  </diagram>
</mxfile>
